# xmcd
#
# Track frame offsets: 
#        150
#        11653
#        25569
#        39825
#        50539
#        61621
#        75707
#        93518
#        106322
#        116280
#        125637
#        139904
#
# Disc length: 2046 seconds
#
# Revision: 0
# Processed by: cddbd v1.5.2PL0 Copyright (c) Steve Scherf et al.
# Submitted via: ExactAudioCopy v1.0b1
#
DISCID=8e07fc0c
DTITLE=Johnny Cash - Pa Osteraker
DYEAR=1973
DGENRE=Country
TTITLE0=Orleans Parish Prison
TTITLE1=Jacob Green
TTITLE2=Me And Bobby McGee
TTITLE3=The Prisoner's Song
TTITLE4=The Invertebraes
TTITLE5=Silver Haired Daddy Of Mine
TTITLE6=City Jail
TTITLE7=Life Of A Prisoner
TTITLE8=Looking Back In Anger
TTITLE9=Nobody Cared
TTITLE10=Help Me Make It Through The Nigh
TTITLE11=I Saw A Man
EXTD=
EXTT0=
EXTT1=
EXTT2=
EXTT3=
EXTT4=
EXTT5=
EXTT6=
EXTT7=
EXTT8=
EXTT9=
EXTT10=
EXTT11=
PLAYORDER=
